<mxfile host="app.diagrams.net" modified="2022-07-05T16:51:22.254Z" agent="5.0 (Windows NT 10.0; Win64; x64) AppleWebKit/537.36 (KHTML, like Gecko) Chrome/103.0.0.0 Safari/537.36" etag="c8mpd1deE_qunZqBBc8p" version="20.0.4" type="github">
  <diagram id="gHlhH8syiRUfptxJsjxY" name="Страница 1">
    <mxGraphModel dx="1422" dy="882" grid="1" gridSize="10" guides="1" tooltips="1" connect="1" arrows="1" fold="1" page="1" pageScale="1" pageWidth="850" pageHeight="1100" math="0" shadow="0">
      <root>
        <mxCell id="0" />
        <mxCell id="1" parent="0" />
        <mxCell id="IPVcv-up8BkzNbpGgrfW-10" value="" style="edgeStyle=orthogonalEdgeStyle;rounded=0;orthogonalLoop=1;jettySize=auto;html=1;" edge="1" parent="1" source="IPVcv-up8BkzNbpGgrfW-1" target="IPVcv-up8BkzNbpGgrfW-3">
          <mxGeometry relative="1" as="geometry" />
        </mxCell>
        <mxCell id="IPVcv-up8BkzNbpGgrfW-1" value="Начало" style="ellipse;whiteSpace=wrap;html=1;aspect=fixed;" vertex="1" parent="1">
          <mxGeometry x="385" y="20" width="80" height="80" as="geometry" />
        </mxCell>
        <mxCell id="IPVcv-up8BkzNbpGgrfW-2" value="Инициализируем два объекта: &lt;br&gt;&quot;машина&quot; и &quot;клиент&quot;." style="rounded=0;whiteSpace=wrap;html=1;" vertex="1" parent="1">
          <mxGeometry x="290" y="130" width="270" height="60" as="geometry" />
        </mxCell>
        <mxCell id="IPVcv-up8BkzNbpGgrfW-5" value="" style="edgeStyle=orthogonalEdgeStyle;rounded=0;orthogonalLoop=1;jettySize=auto;html=1;" edge="1" parent="1" source="IPVcv-up8BkzNbpGgrfW-3" target="IPVcv-up8BkzNbpGgrfW-4">
          <mxGeometry relative="1" as="geometry" />
        </mxCell>
        <mxCell id="IPVcv-up8BkzNbpGgrfW-7" value="" style="edgeStyle=orthogonalEdgeStyle;rounded=0;orthogonalLoop=1;jettySize=auto;html=1;" edge="1" parent="1" source="IPVcv-up8BkzNbpGgrfW-3" target="IPVcv-up8BkzNbpGgrfW-6">
          <mxGeometry relative="1" as="geometry" />
        </mxCell>
        <mxCell id="IPVcv-up8BkzNbpGgrfW-3" value="Покупателю &lt;br&gt;есть 18 лет?" style="rhombus;whiteSpace=wrap;html=1;" vertex="1" parent="1">
          <mxGeometry x="345" y="220" width="160" height="150" as="geometry" />
        </mxCell>
        <mxCell id="IPVcv-up8BkzNbpGgrfW-13" value="" style="edgeStyle=orthogonalEdgeStyle;rounded=0;orthogonalLoop=1;jettySize=auto;html=1;" edge="1" parent="1" source="IPVcv-up8BkzNbpGgrfW-4" target="IPVcv-up8BkzNbpGgrfW-12">
          <mxGeometry relative="1" as="geometry" />
        </mxCell>
        <mxCell id="IPVcv-up8BkzNbpGgrfW-4" value="Покупателю 18 -&amp;gt; он может купить машину." style="whiteSpace=wrap;html=1;" vertex="1" parent="1">
          <mxGeometry x="590" y="235" width="163" height="90" as="geometry" />
        </mxCell>
        <mxCell id="IPVcv-up8BkzNbpGgrfW-9" value="" style="edgeStyle=orthogonalEdgeStyle;rounded=0;orthogonalLoop=1;jettySize=auto;html=1;" edge="1" parent="1" source="IPVcv-up8BkzNbpGgrfW-6" target="IPVcv-up8BkzNbpGgrfW-8">
          <mxGeometry relative="1" as="geometry" />
        </mxCell>
        <mxCell id="IPVcv-up8BkzNbpGgrfW-6" value="Покупателю нет 18 лет - &quot;приходите через ... лет." style="whiteSpace=wrap;html=1;" vertex="1" parent="1">
          <mxGeometry x="141" y="235" width="159" height="90" as="geometry" />
        </mxCell>
        <mxCell id="IPVcv-up8BkzNbpGgrfW-8" value="Конец" style="ellipse;whiteSpace=wrap;html=1;aspect=fixed;" vertex="1" parent="1">
          <mxGeometry x="10" y="240" width="80" height="80" as="geometry" />
        </mxCell>
        <mxCell id="IPVcv-up8BkzNbpGgrfW-15" value="" style="edgeStyle=orthogonalEdgeStyle;rounded=0;orthogonalLoop=1;jettySize=auto;html=1;" edge="1" parent="1" source="IPVcv-up8BkzNbpGgrfW-12" target="IPVcv-up8BkzNbpGgrfW-14">
          <mxGeometry relative="1" as="geometry" />
        </mxCell>
        <mxCell id="IPVcv-up8BkzNbpGgrfW-19" value="" style="edgeStyle=orthogonalEdgeStyle;rounded=0;orthogonalLoop=1;jettySize=auto;html=1;" edge="1" parent="1" source="IPVcv-up8BkzNbpGgrfW-12" target="IPVcv-up8BkzNbpGgrfW-18">
          <mxGeometry relative="1" as="geometry" />
        </mxCell>
        <mxCell id="IPVcv-up8BkzNbpGgrfW-12" value="Хватает ли &lt;br&gt;покупателю денег?" style="rhombus;whiteSpace=wrap;html=1;" vertex="1" parent="1">
          <mxGeometry x="596.5" y="370" width="150" height="140" as="geometry" />
        </mxCell>
        <mxCell id="IPVcv-up8BkzNbpGgrfW-17" value="" style="edgeStyle=orthogonalEdgeStyle;rounded=0;orthogonalLoop=1;jettySize=auto;html=1;" edge="1" parent="1" source="IPVcv-up8BkzNbpGgrfW-14" target="IPVcv-up8BkzNbpGgrfW-16">
          <mxGeometry relative="1" as="geometry" />
        </mxCell>
        <mxCell id="IPVcv-up8BkzNbpGgrfW-14" value="Покупателю хватает денег.&lt;br&gt;Поздравляем клиента с покупкой." style="whiteSpace=wrap;html=1;" vertex="1" parent="1">
          <mxGeometry x="587.25" y="540" width="168.5" height="110" as="geometry" />
        </mxCell>
        <mxCell id="IPVcv-up8BkzNbpGgrfW-16" value="Конец." style="ellipse;whiteSpace=wrap;html=1;" vertex="1" parent="1">
          <mxGeometry x="616.88" y="680" width="109.25" height="100" as="geometry" />
        </mxCell>
        <mxCell id="IPVcv-up8BkzNbpGgrfW-21" value="" style="edgeStyle=orthogonalEdgeStyle;rounded=0;orthogonalLoop=1;jettySize=auto;html=1;" edge="1" parent="1" source="IPVcv-up8BkzNbpGgrfW-18" target="IPVcv-up8BkzNbpGgrfW-20">
          <mxGeometry relative="1" as="geometry" />
        </mxCell>
        <mxCell id="IPVcv-up8BkzNbpGgrfW-18" value="Покупателю не хватает денег." style="whiteSpace=wrap;html=1;" vertex="1" parent="1">
          <mxGeometry x="410" y="395" width="160" height="90" as="geometry" />
        </mxCell>
        <mxCell id="IPVcv-up8BkzNbpGgrfW-25" value="" style="edgeStyle=orthogonalEdgeStyle;rounded=0;orthogonalLoop=1;jettySize=auto;html=1;" edge="1" parent="1" source="IPVcv-up8BkzNbpGgrfW-20" target="IPVcv-up8BkzNbpGgrfW-24">
          <mxGeometry relative="1" as="geometry" />
        </mxCell>
        <mxCell id="IPVcv-up8BkzNbpGgrfW-27" value="" style="edgeStyle=orthogonalEdgeStyle;rounded=0;orthogonalLoop=1;jettySize=auto;html=1;" edge="1" parent="1" source="IPVcv-up8BkzNbpGgrfW-20" target="IPVcv-up8BkzNbpGgrfW-26">
          <mxGeometry relative="1" as="geometry" />
        </mxCell>
        <mxCell id="IPVcv-up8BkzNbpGgrfW-20" value="Готов ли покупатель &lt;br&gt;взять кредит?" style="rhombus;whiteSpace=wrap;html=1;" vertex="1" parent="1">
          <mxGeometry x="206" y="362.5" width="150" height="155" as="geometry" />
        </mxCell>
        <mxCell id="IPVcv-up8BkzNbpGgrfW-31" value="" style="edgeStyle=orthogonalEdgeStyle;rounded=0;orthogonalLoop=1;jettySize=auto;html=1;" edge="1" parent="1" source="IPVcv-up8BkzNbpGgrfW-24" target="IPVcv-up8BkzNbpGgrfW-30">
          <mxGeometry relative="1" as="geometry" />
        </mxCell>
        <mxCell id="IPVcv-up8BkzNbpGgrfW-24" value="Готов. Оформляем кредит на 3 года.&lt;br&gt;Считаем ежемесячный платёж. Заворачиваем машину -&amp;gt; поздравляем клиента с приобретением." style="whiteSpace=wrap;html=1;" vertex="1" parent="1">
          <mxGeometry x="230" y="570" width="279" height="100" as="geometry" />
        </mxCell>
        <mxCell id="IPVcv-up8BkzNbpGgrfW-29" value="" style="edgeStyle=orthogonalEdgeStyle;rounded=0;orthogonalLoop=1;jettySize=auto;html=1;" edge="1" parent="1" source="IPVcv-up8BkzNbpGgrfW-26" target="IPVcv-up8BkzNbpGgrfW-28">
          <mxGeometry relative="1" as="geometry" />
        </mxCell>
        <mxCell id="IPVcv-up8BkzNbpGgrfW-26" value="Не готов." style="whiteSpace=wrap;html=1;" vertex="1" parent="1">
          <mxGeometry x="40" y="410" width="120" height="60" as="geometry" />
        </mxCell>
        <mxCell id="IPVcv-up8BkzNbpGgrfW-28" value="Приходите позже." style="ellipse;whiteSpace=wrap;html=1;" vertex="1" parent="1">
          <mxGeometry x="50" y="550" width="110" height="100" as="geometry" />
        </mxCell>
        <mxCell id="IPVcv-up8BkzNbpGgrfW-30" value="Конец." style="ellipse;whiteSpace=wrap;html=1;" vertex="1" parent="1">
          <mxGeometry x="296.88" y="740" width="145.25" height="140" as="geometry" />
        </mxCell>
      </root>
    </mxGraphModel>
  </diagram>
</mxfile>
